<svg width="183" height="30" viewBox="0 0 183 30" fill="none" xmlns="http://www.w3.org/2000/svg">
<path d="M13.5024 0.0431792C7.22329 0.547745 1.9907 4.96464 0.428726 11.0815C-0.649033 15.3121 0.335008 19.993 3.04503 23.5172C3.54486 24.1692 4.70071 25.3491 5.38017 25.908C6.06744 26.4592 5.97372 26.4824 7.07491 25.5121C8.43382 24.3245 9.55063 22.9272 10.2613 21.4989C10.6596 20.7149 11.0267 19.6281 11.0423 19.1856L11.0579 18.8907L10.0426 18.4482C8.6525 17.8272 8.098 17.5245 7.66065 17.1363C6.81718 16.3834 6.85623 15.413 7.73874 15.0404C8.262 14.8153 8.8165 14.7998 10.3941 14.9551C11.2297 15.0327 11.9795 15.087 12.0654 15.0793C12.1825 15.0637 12.1044 14.9395 11.6827 14.4738C10.0661 12.6961 8.66812 10.5304 7.99647 8.76053C7.15301 6.55597 7.08272 4.03313 7.84027 3.23359C8.262 2.78336 8.8946 2.69797 9.2929 3.03176C9.62873 3.31122 9.7615 3.83131 9.83959 5.1587C9.90988 6.32309 10.1364 7.51076 10.3941 8.08519C10.5737 8.4966 10.808 8.60528 11.136 8.4345C11.6671 8.17058 12.8776 6.7345 14.0491 4.99569C14.627 4.13405 15.1737 3.56738 15.5095 3.48199C16.0328 3.35003 16.6185 3.66829 16.845 4.20391C17.2433 5.13542 16.5873 6.26099 13.8695 9.30391C12.7917 10.5149 12.6121 10.8098 12.6902 11.2368C12.7839 11.7336 14.26 13.8295 14.7364 14.14C14.9082 14.2487 14.9394 14.2487 15.1191 14.1322C15.5252 13.8683 16.3921 12.5409 17.4386 10.5614C18.2742 8.97788 18.5866 8.67514 19.2817 8.75277C19.8518 8.81487 20.2892 9.24181 20.3673 9.79295C20.4376 10.3441 20.2033 10.8797 19.0162 12.8514C17.9306 14.6445 17.8603 14.7687 17.8291 15.219C17.79 15.7468 17.8915 16.0108 18.2586 16.3445C18.3758 16.461 19.5472 17.2062 20.8593 18.0057C22.1713 18.813 23.3584 19.5738 23.499 19.7057C23.8817 20.0551 24.0613 20.4509 24.0613 20.9322C24.0535 21.724 23.5381 22.3528 22.6243 22.6943C22.1245 22.8806 21.8902 22.8884 19.641 22.8108L17.915 22.7564L17.8134 23.1756C17.5792 24.2003 16.7123 27.6158 16.5326 28.2445C16.4233 28.6172 16.3296 28.9587 16.3296 28.9975C16.3296 29.1062 16.7201 29.0829 17.5479 28.9121C23.335 27.7322 27.8179 23.3076 29.0284 17.5788C29.7078 14.3651 29.2627 10.9806 27.7788 8.04638C25.8029 4.14181 22.2104 1.33953 17.8915 0.353682C16.5717 0.0509418 14.8926 -0.0732591 13.5024 0.0431792Z" fill="#007A7C"/>
<path d="M16.2749 17.9669C15.7516 18.2774 15.5876 18.8441 15.861 19.403C16.2437 20.187 17.1808 20.2802 17.7666 19.5971C18.0087 19.3099 18.0477 18.7277 17.8525 18.3473C17.587 17.8427 16.7982 17.6487 16.2749 17.9669Z" fill="#007A7C"/>
<path d="M50.1991 5.23396C45.4915 6.21467 41.6506 11.772 42.0253 17.0725C42.2361 19.9913 43.5945 22.0928 46.0536 23.4005C47.0841 23.9609 47.4823 24.0309 49.4496 24.0309C51.3467 24.0309 51.8385 23.9375 52.7285 23.4705C53.314 23.167 53.9698 22.77 54.1806 22.5832C54.5319 22.2796 54.6022 22.303 54.9301 22.9568C55.375 23.7974 55.9606 24.1477 56.9442 24.1477C58.0216 24.1477 58.5837 23.7507 59.0755 22.6299C59.4971 21.6725 59.5205 21.2989 59.2863 15.5781C59.1692 12.2624 58.9584 9.0167 58.8413 8.38624C58.5837 7.05528 57.764 6.16797 56.7334 6.16797C56.3587 6.16797 55.6093 5.95781 55.0472 5.72431C53.8059 5.18725 51.5575 4.95375 50.1991 5.23396ZM53.5248 10.5345C54.1806 11.0248 54.368 11.8654 54.368 14.3172C54.368 15.9984 54.3445 16.0451 53.3843 17.2126C50.6675 20.435 46.5689 19.6411 46.9202 15.9517C47.0607 14.5741 48.2318 12.1223 49.1686 11.235C50.527 9.92736 52.3538 9.64715 53.5248 10.5345Z" fill="#007A7C"/>
<path d="M72.6595 5.23396C69.404 5.91111 66.5935 8.59639 65.3757 12.239C64.6496 14.4106 64.7901 17.1659 65.727 19.1274C67.5772 22.9801 72.2145 25.2918 76.1492 24.2878C79.0299 23.5406 80.2244 22.5131 81.5125 19.6411C82.4493 17.5862 82.4259 17.0492 81.4422 16.0685C80.8099 15.438 80.4586 15.2746 79.7325 15.2746C78.4678 15.2746 77.8354 15.8116 77.0626 17.5162C76.6878 18.3101 76.1492 19.1507 75.8681 19.3375C75.1187 19.8746 73.6197 19.8045 72.4019 19.1741C70.013 17.9598 69.2167 15.6015 70.3408 13.1263C71.3714 10.8847 73.2216 9.5771 74.7908 9.99741C75.0952 10.0675 75.8681 10.5578 76.5005 11.0949C77.9994 12.3324 78.5849 12.5659 79.5686 12.239C80.6693 11.8654 81.3017 10.9781 81.3017 9.83396C81.3017 8.99335 81.1612 8.75984 80.0838 7.73243C77.9057 5.70096 75.0718 4.76695 72.6595 5.23396Z" fill="#007A7C"/>
<path d="M94.2299 5.25731C90.5294 5.98116 87.719 8.8299 86.9227 12.636C86.4543 14.7842 86.7119 17.703 87.4848 19.4076C89.6395 24.1477 95.9396 25.9223 101.233 23.2837C103.903 21.9527 104.722 20.1548 103.341 18.7538C102.31 17.7497 101.303 17.8197 99.9445 19.0106C98.3754 20.3416 96.6188 20.7152 94.5344 20.1548C93.1057 19.7578 91.6068 18.1466 91.6068 16.9791C91.6068 16.5822 91.9581 16.5588 96.9467 16.5588C101.865 16.5355 102.357 16.5121 103.364 16.0451C104.816 15.3913 105.167 14.3639 104.746 12.0756C104.02 8.17609 101.561 5.79436 97.6259 5.21061C95.9396 4.9771 95.6117 4.9771 94.2299 5.25731ZM98.469 9.69385C99.2419 10.0441 99.968 11.1416 100.085 12.1223C100.155 12.7527 100.085 12.8228 99.2185 12.9862C98.0475 13.1964 93.6678 13.2197 92.4734 13.0096C91.6536 12.8928 91.5834 12.8228 91.7239 12.2624C92.0284 10.9314 93.3633 9.71721 94.8154 9.41365C95.9396 9.18015 97.6259 9.32025 98.469 9.69385Z" fill="#007A7C"/>
<path d="M117.252 5.93446C114.606 6.98522 114.559 6.98522 114.559 6.54157C114.559 5.95781 113.388 5.23396 112.428 5.23396C111.28 5.23396 110.39 5.98116 110.109 7.19538C109.992 7.70908 109.945 9.88066 110.015 12.0289C110.062 14.1771 110.109 17.4928 110.109 19.3609V22.7933L110.788 23.4705C111.936 24.5913 113.997 24.3111 114.723 22.9101C115.004 22.3497 115.074 21.369 115.027 17.6329C115.004 15.1111 114.981 12.7761 115.004 12.4492C115.027 11.8888 115.262 11.7253 116.971 11.0248C118.025 10.5812 119.454 10.0208 120.11 9.81061C121.421 9.36695 122.288 8.52634 122.288 7.68573C122.288 6.23802 121.234 4.9771 120.016 5.00045C119.782 5.00045 118.541 5.42076 117.252 5.93446Z" fill="#007A7C"/>
<path d="M126.152 5.25731C125.122 5.84106 124.63 6.49487 124.63 7.21873C124.63 7.61568 125.262 9.3903 126.035 11.1649C126.808 12.9395 128.143 16.3954 128.963 18.8472C130.602 23.704 130.883 24.1477 132.359 24.1477C133.741 24.1477 134.303 23.5172 135.403 20.7152C135.942 19.3142 137.488 15.8817 138.823 13.0796C140.158 10.2543 141.259 7.66238 141.259 7.31213C141.259 5.88776 139.596 4.90705 138.19 5.49081C137.418 5.79436 136.176 8.03599 134.115 12.8461C133.506 14.2472 132.991 15.4147 132.968 15.4614C132.921 15.4847 132.382 14.2705 131.773 12.7761C130.181 8.85325 128.752 5.86441 128.33 5.53751C127.815 5.09386 126.691 4.95375 126.152 5.25731Z" fill="#007A7C"/>
<path d="M146.95 5.51416C146.294 5.84106 146.013 6.56492 145.708 8.85325C144.795 15.6715 145.287 19.3142 147.488 21.9527C149.667 24.638 154.07 25.0817 156.271 22.8634L157.114 22.0461L157.489 22.9802C157.747 23.634 158.098 24.0076 158.707 24.3111C159.527 24.7081 159.597 24.7081 160.417 24.2644C161.845 23.4939 161.892 23.0269 161.822 14.3406C161.752 6.21467 161.728 6.02786 160.534 5.49081C159.55 5.04715 158.215 5.18726 157.489 5.79436L156.833 6.35477L156.693 17.306L155.709 18.4269C154.819 19.4309 154.608 19.5477 153.554 19.6411C152.079 19.7578 151.002 19.1507 150.439 17.8898C149.948 16.769 149.924 13.3131 150.369 9.60045C150.744 6.56492 150.627 5.98116 149.526 5.49081C148.823 5.1639 147.629 5.18726 146.95 5.51416Z" fill="#007A7C"/>
<path d="M171.94 5.67761C168.614 6.72837 167.021 8.9233 167.724 11.5152C168.239 13.4766 169.691 14.5974 173.86 16.2086C176.717 17.306 177.561 17.8664 177.561 18.6604C177.561 19.4309 176.788 19.8979 175.195 20.0847C173.204 20.3182 172.338 19.9213 171.354 18.4269C170.722 17.4228 170.394 17.1426 169.785 17.0258C168.333 16.7456 166.787 17.7964 166.787 19.0573C166.787 20.6451 168.52 22.8867 170.347 23.704C171.448 24.1944 171.94 24.2644 174.516 24.2644C177.233 24.2644 177.537 24.2177 178.849 23.6106C179.622 23.2604 180.605 22.6299 181.003 22.2329C181.987 21.2756 182.573 19.5243 182.409 18.0532C182.081 15.2512 180.277 13.7101 175.219 11.9121C172.9 11.0715 172.291 10.6746 172.642 10.2543C173.439 9.2969 176.155 9.64715 178.052 10.9548C178.708 11.3984 179.504 11.772 179.832 11.772C181.612 11.772 182.783 9.85731 181.94 8.31619C181.448 7.47558 179.481 6.19132 177.842 5.70096C175.991 5.11721 173.673 5.11721 171.94 5.67761Z" fill="#007A7C"/>
</svg>
